<mxfile host="app.diagrams.net" modified="2020-08-06T06:35:24.620Z" agent="5.0 (Windows NT 10.0; Win64; x64) AppleWebKit/537.36 (KHTML, like Gecko) Chrome/70.0.3538.77 Safari/537.36" etag="WbRlteQSypkgemgOWIM2" version="13.6.0" type="github">
  <diagram id="R16_PFZ8VtV6RiPnJOPt" name="Page-1">
    <mxGraphModel dx="868" dy="412" grid="1" gridSize="10" guides="1" tooltips="1" connect="1" arrows="1" fold="1" page="1" pageScale="1" pageWidth="827" pageHeight="1169" math="0" shadow="0">
      <root>
        <mxCell id="0" />
        <mxCell id="1" parent="0" />
        <mxCell id="wLfKBq6g52r6L9w3R0K2-4" value="" style="edgeStyle=orthogonalEdgeStyle;rounded=0;orthogonalLoop=1;jettySize=auto;html=1;" parent="1" source="wLfKBq6g52r6L9w3R0K2-1" target="wLfKBq6g52r6L9w3R0K2-3" edge="1">
          <mxGeometry relative="1" as="geometry" />
        </mxCell>
        <mxCell id="wLfKBq6g52r6L9w3R0K2-9" value="否" style="edgeStyle=orthogonalEdgeStyle;rounded=0;orthogonalLoop=1;jettySize=auto;html=1;" parent="1" source="wLfKBq6g52r6L9w3R0K2-1" target="wLfKBq6g52r6L9w3R0K2-6" edge="1">
          <mxGeometry relative="1" as="geometry" />
        </mxCell>
        <mxCell id="wLfKBq6g52r6L9w3R0K2-1" value="判断table是否为空或者长度=0" style="rhombus;whiteSpace=wrap;html=1;" parent="1" vertex="1">
          <mxGeometry x="210" y="297" width="180" height="80" as="geometry" />
        </mxCell>
        <mxCell id="wLfKBq6g52r6L9w3R0K2-2" value="" style="shape=image;verticalLabelPosition=bottom;labelBackgroundColor=#ffffff;verticalAlign=top;aspect=fixed;imageAspect=0;image=data:image/png,iVBORw0KGgoAAAANSUhEUgAAAa8AAAAbCAYAAADLRwDWAAAKCklEQVR4Ae1cb0hcVxb/PUkN/bCQmJZFmpQ2jlFCC3EnBjMf3O220SRiDQvSYJFAdmKa+VDrQMjC0m2MBHYRFAOdRJ0N7IYNKSWsiWv8V0jXD0Y0swm0SNTRdpMUKY2ab9lY8C33/Zs3b97feeP4NEcY3rx7zrn33N+95513zj0Ox/M8D/ojBAgBzyDQHuAQviOps78N/GiTZ3QjRQgBryDAkfPyylKQHoQAIUAIEAJ2Ecixy0h8hAAhQAgQAoSAVxDYhJ8fe0UX0oMQIAQIAUKAELCFAEVetmAiJkKAECAECAEvIUDOy0urQboQAoQAIUAI2EKAnJctmIiJECAECAFCwEsIkPPy0mqQLoQAIUAIEAK2ECDnZQsmYiIECAFCgBDwEgLunFf8HgK5UQQ6lgznNNNxHVzuXxOf0PeGvGaE9vIjaI8b/z+1Fd2sby2tvXwHuFzz8bQynrmfvYtzeRGcfOUiokMGePGL6Dsg8jC+hsY55+rHuxEo73Yutx4k+CW0l0eN96wV3cEcZzqOINDxnaGEFd1QUEPIpH1ous76rWv7zMT+X61Zq3Qztcv1YH+DeeBytwufQMemZMQyoL8755WsTupd/B6OnQbaJo+DX/69+Im8kcpn1TJ4BmFUocnH6XMa0NvLz6A/jR8QaRp5hLYy/aGy2Xq/MeLcsRTsxZ8WDqJ0xcBxsQlweagaDqHzySmc+tCEz2yyvhP49K1zODmYprxZ32tN47aiaSQo7NdbQZ35WdHXWn/t+Ab2oWXL9v2a2Wcm9n8GwNK1b0k3S7v0uv3Ff4FANXDr+SPwy49Rez0vOfjIgP7unJevBKPLQYw2btVfytmnuIM8FBfok+229t+4ioY/Bg3ZreiGgqtEYG/LXC6L3lI/Zm/ZuupMLmI+DQes21eGGw/V1KHrfNRxr1b4WNEdD/iCC2TaPmh9MrihXNi3l+1vpu8l1E4u4BAnBhxNl5/hy7aXk4BLV3+5E00sJzdbXFna5NfXER6TIqHgu+DVERX/PU5u/gpdEOmHN0tpqbJfYfrfe1AoTchiFJHM30ZP1I/isAG3Hn3wDLjqq6LAZukKYH/rCEYb3xTb1TxamjzUbBSB3ecg/sycH22T/zSO/mQZAIWNPeAbVQ1Ov/JziG4bwEQOBw4TOPvqhNADX1KK5iE/8jkO7K3t4j8SkaialhhuCX0HruHmPQ78ylbUTHyAqoKETIJP55tKB0blV3wILbyHPeq1qziIhuoOtMeDtnCRR7HGxx1+/aEoDkc5IPgupoti2HX6KYAtaJv8HZoKnib2rrRvFX6ZxyjClyewnq5m9lHmx/6xmLS/63Dr+Z+Vh43ZFK3Xz0wagNr21sA+LbQTySb7X7Y9/sNKNO8ax9nPllLti6XvS8fxQw6zPR9qWhZwU+Dz4dSTAsReMbdvUQmW3h+Q7Hf92B/TPT61CajSIP3tSwD+l2hM8/khd5Be5GWVNuHeQOdyEHzvTgA7ceu5lDYcKXHmuJiWQwPoQpFx9KZHr/wL+GWW+mMG+VD4zu4VxyXM/mASrfZ6uSYFFkO4ug+1k5L8ZBW+3P2HtNKQMti2r9xOBBdDQkqPOaWzP30kpPi6hvcKjov1s6dDTPux1F/nTx+gBuPojiSfPY4fHQIunRJkm1uAG6VfoG9WJw2mVYwZ3rYB4Jooy8ZobllAZNtXuK+OArl3UFwWw4NZbQdre38oEoSY7vsO/8JvhfTfdCsQ3v01+rFFSAmq04GMX9yra6v3qoxuZB+9dcAYlP093TqFlgvpnUc71tvr9mmx/5ntiWm9WfwHFSr7kuxDclxoOSra7cRWxD5dhPCCufAeSnKs7VvA9Epcsd9Q/Qwin2jORj1qf7b3g0v903NetrXLEGOZz/yN0Iquq8YADm9+XUnthcdSmRp6VZGW7wT+1jqFnqFUPm1LVtIqQ8NCUQYruDj56hfC25lWj+0tFUqklR+qQI1/ETcuaAxAKwRgfiAuvDFO1F1SxmBvl1xOHHeHUwW+eeDsoWeFjxU9VQODlihQ/PEWgVhYnAdg0XOO1kDzzDYb2UewUYmYC4uLcGfK3jpmbH1MZ7l69mk6rJP9fwV4LSQemeQXbgOwgB/mgPsXxvHYvw8nJBoK9uL9eqtRdej1+xT7/eWuPMAgxehZ+9OZkl6TU/3lPtJLG8rS2bqOxYWIR86fpgxrRdcKsEoX4TDxoeIU+0M70JPE5zeO9pL4Um9cp1VSu0xuYY6rLo7Sqx8hWMEBrEKp4hpiyVxp3/04vQh+pTA1TWjQ49vFzopwrPFxlzZU1Ay+qayv0vYifnFqHxYYWa+fRQdW5FW2T6vhbe//+oLkNLpVx6tE96L9+YqAHpaR8akm/dbPqpvEV6f6y5Lej7xYXhRTxm/MpnSVHDOI3B2J1KD6bTTejZaUuoMYwsdVjfFuHDtdhCMVMnRZvkoltOc+XxQGZnn0vQdEHeYjQ7qRF3rmEmm+4ZjAs69KOvMzUX/Px/uwHZo0hRTpJZXf87fxYCx9J2+iQnZI3y5hhqVB2RnueY/lPjOFgKl9ZGqQdPtZZfuUbJ7LdVZ1bHv/G0xbkI+p0vizd3HzigGz3Kyxb7nZ9Oph+yuseoZvbiQKNPrbXkZt+FnydFzqz/HLj2wcgiSPKdwN3gZXnfr/QQ29x9FZcB+B3ewgWFMcoC3s0OlWr0mIimoeorNS05/EbEhXHwwjueCCyRxWfJMf+8tiuDMGNPQ+RPH51xEe86MhCHRF5XgmWV5Pz4y3aQ+NDQo2XmuuhL9HPNhdqfJhR++MkPYrvVoJHBUPhpluSqQmRW56+io8qgNnmY8dUHd1sHNM6Y/he94HfuSE3OKJa6IAAwArEroMHFP2IzuD/Q0O4b+qoqItaGvNQ/g028870XeTR9X7+ulVYX/ja929zyYv0A32qR44LAV3DO2a89gEpxU9wWn8LcU+1HYR/Dv4moFEgRO7j7xj3FkmKWo9VsM+mfMSCq40xSgu979csMGgEM6xLgHdquIMobBpLpYo2CgpRehIHJEen1JwJcBoYN8/fnJRKcZSF4Uo40lFW0LhiwftT94i/aHtiWds8An4iKpYgzG5fH6k77xkDbNxtZqkFT0bOr6AY6Q8FF9ADNxO2co5WdFtjU/2YQum1WSa//waPtM6L5cDrnf7c6v/+nBeANgvBOCyqoBCs/BWdA073bpFgL3VHgdGPRZ1uZ3WRpUn+1jDlZUirPH6g8mZCzcqrXf7y4D+68Z5uVlnkiUECAFCIKsIaNLu+v+HmVWNNtxg5Lw23JLShAgBQoAQ2PgIeL/acOOvAc2QECAECAFCwCECHM+rfzLBmfT8/Dzy8/OdCRE3IUAIEAKEACHgEgGKvFwCSOKEACFACBAC2UeAnFf2MacRCQFCgBAgBFwiQM7LJYAkTggQAoQAIZB9BP4PGN8mvH505kAAAAAASUVORK5CYII=;" parent="1" vertex="1">
          <mxGeometry x="110" y="270" width="431" height="27" as="geometry" />
        </mxCell>
        <mxCell id="wLfKBq6g52r6L9w3R0K2-3" value="扩容" style="rounded=0;whiteSpace=wrap;html=1;" parent="1" vertex="1">
          <mxGeometry x="470" y="312" width="90" height="50" as="geometry" />
        </mxCell>
        <mxCell id="wLfKBq6g52r6L9w3R0K2-5" value="" style="shape=image;verticalLabelPosition=bottom;labelBackgroundColor=#ffffff;verticalAlign=top;aspect=fixed;imageAspect=0;image=data:image/png,iVBORw0KGgoAAAANSUhEUgAAAS8AAAAYCAYAAACr1nt5AAAGm0lEQVR4Ae1cT0wcVRj/DfEIemtt9NhFErOxGi+zp5K0h6WJ4YKeDCdmo62Ju/FSlFhK6nHW0kTD0gvxAiExxJTdNjXlxh5sBCUQZLlpS+nNePPgM+/NvNk3/6dlWHaWj2Qz8973ve/P75v55n3fTNDYv38y0B8hQAgQAhlDoC9j9pK5hAAhQAgIBDTGGO286GIgBAiBzCFAO6/MhYwMJgQIAY4AJS+6DggBQiCTCFDyymTYyGhCgBCg5EXXACFACGQSAUpemQwbGU0IEAKUvABUCwVUW+lcDNWCBk1LT146VmVbii8+rSoKhWq4U3H08JUAnmN1eBKl174UP+PaTiR3Z4lt27rLrs6iILVR8mqUUMEYyjkJiXWsFkpouKcSjcrrDKaeiDXzTI2ShkJaWT8MjaD45MqYyldQCgtQHD1Ml5g/gytr32Du71v45OOT+4po89ok/AnKsu0k7YqErsPEzCWvVrUATeO7G//vZW6kxkoNxlS5w7CHq0vbv3BNR6cU5xjWvVn/6GJdEsLiUxw1UJsJ333F0V1KunWwfYiDbrWtC+zqfPJqlKzEUyig4CSg5LucXHkd/LvaoN+L30gNrNR0DJ1XImHbV2nWMOLY59lhSB9semDS3K8q/iUvI9Pwj++IeHLndslzVynLyyrFNy2gBLPKX/sBwWOl8ij+B/kemIDVbVIC/VZEAuIjQ1UchdFcDi/34+hSzksdd3B3QCktB5awacvhOyZecvJd08GdWet8YBar+4qi/TXctNcbA0tYdfiWsAFL9vc/aNB+/Rk3ZPk6vOZJZIdOectlSP1tLQ2URIyTX3vttRk541/Yd/yvbjBAZ+aepXnP1JkuB500RthhsHqATlMPnhes9bprjamDGYoQPlb9Y3sm0xEhL0D/kaeEb2BwDKuzum2jqbex53o4/m0+a6zGo26AQTd9JoXFzTUvfHfri9PvKIqID+fx4u6ss0/i6F5+73jj6nU2cXXbPd16xKb7r7P5++3pp7O32UT/Ituwp6x1i+ze7KGYcdHt9dM2jdnjiYuP2NO2SCZkeOYkWdD6b7N7LWsm0E5WZwY816EU0CPHzu+8ZFI3ppw+U24oj+au+miSTP5j4FM9agfkF+Ge0YdQdM8kGK24dmWVpn+JUV93/EOujAVzCythPRpleZr+6eYe2Jz0rogiP21VsdxsojLYLrsHuQO1FafHlytPIV8ZdErzkZqB+nry0prvHsUumO+wBpcxtqdgkUC/AgcQE5+t3eg3LXF0l64Eg4PGFp70afjlQ6uhz3dZN746hNb3Ox4/UAQsAG98dkZMnBs8C+AQT/aBzW8f4q/3L2PCpuH8MD4YV9YlPR2/hCt2xXD2rdcBX4lZxJyoUBTsk8rOCN8rGbHTMVOUVcnvI2dd6ElzV9y08hYP5ZMEfkOOAHXGnKTHS7MVSRdHTynqokUPUvcvSJ1ugkUmI+vCn5NreZlYqMaskcz2MShxSZZY/ZIRQEx88kOeNy3KUn4aR/ewxw4P/3gG9t87+PSfj3Ahins8H02PWku0RAic3M4rkXnHzMT7IthC8MNbmbd7NE7bRt0NtKqYqXntbKIyrjSTW1WMV/IYTZwhvfJSHOfKGEPEm7pUPh1poOTacTVQkj2zBPodbyPj08BuM+ohEUO3Y6ppyfut3K4Ln1/Gm/gN36mfUDxYEr2tu+rOy3HCfSLWP36I+TvPLcL+Gn5acPP4R9YnEjflGj+Df0b2JSXufo7sz3S8/JW9GF6P836Md9xhg3g/x2kLqbpVu5T+HGcRPSDRT7B6CrrocVlyZL/LMHT+nt3+uXs+qpr0z2WvQ+q2jm4fA3iUnpblg7pe7dcFrBV+tnnc+NhyFPnM6ccoOlz0NiqR8QlZI1bz+EXRRS+O62/bLdbdX2TGq5OBP6fPZfepVD7ZG+P9Jzkv+lgKr9MXU+cuPmIbvGfm629ts/l+jyzGRC/MkX91m/F+mjNWZIg+pue6baPaG2f0L3H4E2pm6MVKouw/s7LjQUh8RKk+yuC09DwexdE97Cc65G8lv/4xj+m1YZxLyRL+triSrys9z5QEd5GY01028kAU52Ai4pV7FwXrVJoSFB9eqm+ZoYmLv5SIpHcVkDtYnXwGvH02tcRlvZTRYX7RDX2K4wObdl7Hhy1JJgSCEeDfeb37ULy15AzsvUup7rqClfbeLCWv3ospeUQInAoEqGw8FWEmJwmB3kOAklfvxZQ8IgROBQKUvE5FmMlJQqD3EPgfcI7w7LxsyagAAAAASUVORK5CYII=;" parent="1" vertex="1">
          <mxGeometry x="430" y="367" width="283" height="22.42" as="geometry" />
        </mxCell>
        <mxCell id="wLfKBq6g52r6L9w3R0K2-12" value="否" style="edgeStyle=orthogonalEdgeStyle;rounded=0;orthogonalLoop=1;jettySize=auto;html=1;" parent="1" source="wLfKBq6g52r6L9w3R0K2-6" target="wLfKBq6g52r6L9w3R0K2-11" edge="1">
          <mxGeometry relative="1" as="geometry" />
        </mxCell>
        <mxCell id="wLfKBq6g52r6L9w3R0K2-14" value="是" style="edgeStyle=orthogonalEdgeStyle;rounded=0;orthogonalLoop=1;jettySize=auto;html=1;" parent="1" source="wLfKBq6g52r6L9w3R0K2-6" target="wLfKBq6g52r6L9w3R0K2-13" edge="1">
          <mxGeometry relative="1" as="geometry" />
        </mxCell>
        <mxCell id="wLfKBq6g52r6L9w3R0K2-6" value="进行hash分析&lt;br&gt;命中哪个bucket&lt;br&gt;是否有值" style="rhombus;whiteSpace=wrap;html=1;" parent="1" vertex="1">
          <mxGeometry x="215" y="477" width="170" height="80" as="geometry" />
        </mxCell>
        <mxCell id="wLfKBq6g52r6L9w3R0K2-8" value="是" style="text;html=1;align=center;verticalAlign=middle;resizable=0;points=[];autosize=1;" parent="1" vertex="1">
          <mxGeometry x="415" y="317" width="30" height="20" as="geometry" />
        </mxCell>
        <mxCell id="wLfKBq6g52r6L9w3R0K2-10" value="" style="shape=image;verticalLabelPosition=bottom;labelBackgroundColor=#ffffff;verticalAlign=top;aspect=fixed;imageAspect=0;image=data:image/png,iVBORw0KGgoAAAANSUhEUgAAAWMAAAAaCAYAAABimD1cAAAHO0lEQVR4Ae1dvW/bRhT/MXvHBMheGUIbD+1GDQEKdJEmD/VWwBs1S3tgpV4LcikSSOgSoJtSwENKDR2CdBCBrkobQfJaGIj/iCuOIil+3R0/JdJ+BAiRfHfv4/eOj+8ez7TGGGMQbLe3t3j69KmA+rAuW70e8GaJUedh2d0WaxP+2VroXQDL5SjdBBU9vdeRrv6LX7/4DX9f/IjZL19VowO3/2SO8w2N6WoALc9Fo2BcHkTiQAhUjsDNe/z0zZ/475Hmsmbffo+X778DpUaVI90YhhSMG+MKUoQQIAQeMgKPHrLxZDshQAgQAk1BQJoZN0VJ0oMQIAQIgfuOAGXG993DZB8hQAi0AgEKxq1wEylJCBAC9x0BCsb33cNkHyFACLQCAQrGrXATKUkIEAL3HQEKxvfdw2QfIUAItAIBeTDe/oWeNkHPuhMas7VeQ9Ne7vfhWthWRuB/QWVtxS1UdHHP5lGsngZNk9vra721etC07O39fof+baJ/FkNA0wBtmIIG/wu0npVCqP+S79Phoh5Zmfhz+91xpaGXduMdEZ96UAlzvYPVm0hilooOoA58+F/gCbfNB6bjkunm5/QmLv0VMzfp5MxXbYNBN8XNVXRxz1oppm4wu6AEU9cz4bYxdaZLALYNSOkF1cvXrYH+2ZiMwWCMO0g0tDh2RlEH5kMo0Zr7tU7ZWfnLxtcx8UkAVtMF27hkMD4JucvoVeMjz4w7z7FkEyxHj8OPlf3xzR0cPEG35PcaFtczGC8E3xAAoKLvFcp25GcOu4yTZ537PTVLyMb2KK36U4Zlzg9mVG1/1f6pAsjOCGBTOaf+mYHZVYnsOJRdatoQNSW6ciNqpBbFRzW+VPQaTaqUdVF8REoIgrEqTV9jqE2gDT4C+IiBX6bo/QVJpUGgwwLXMx3dLwVkJOnBNN8ahgJptmk/l9IZLcG/j5S2Zwpsi53csTPDQBTIvTZ+oE8N8jf7qWLWskWAUoh/Ku+gYfKgtP0Rlkn/wNet1wumwo0MVv0zGM5cWh6LmBo7Wfw8xqntj6Mp+jG68nQd9n8smPsYSkoJu/vASyQ41vGyi4y/UjkABfFRjS8VXaXaYuiVGIZr7Mukrz0/hmKXVzIN2mt+G5WEjPSC+Ii4C4LxY4yWEzB2CT4DTW5dTNkEzH4G4Blsdum2ZcvnyJ0kL64xw6k4u06hj5YMpu5gPAZsP6huzjE/iQ3opOLVXOlP3UBu6sZePotnqGcR2vn8BNEaoYPxgH81y7uZ8+rv6bAx9WpsKsolxT/gutkG4CCwb2OucJVWm0yVu8Aw9JDzH2jVB/Q+urqD9U2qEsqLPDNarfOnHz7j2Xjv/yQ+8vHDs8v5+SZIKOxTh8Md2eT8I00FJ+XwETAtfbk/nXhx6R+8ww9u7NmYwPjkdyywi13huMXb72JVadExBtXiIwjGMZl1n+pdeVYhoBt2KBvpjPDGXOE6w1zxMNOk60jWPI7fKQAMO/T5whz6l3VH5fYL/APjRfDJ0U73FE7mqNfH1H/IRn5D/i4LQqh/0YBqXc3gjC8KZ9Zh/yfxkY+fzugFTscnwcxwMDNgxz4XKucfAkBxmBcf1fhS0RXq7MkzoOuVUDvdJwA+o8Szcc8351FefETsmxGMnbW83pZKl5U2ROburpedJsm5e29aB6GsnTHwRDG6Fdc/yif/WeX2p/onv17H6nFa4KUHDyhuZspnNBcWFkMNWnTqU9wcXotWjp/YA8sGBvEyRXENIj3z4qMaXyp6RLjsxPhansTJ+lZIy4uPSPTxgzGvu2AlfqIJ6Q7GF9GXL+/mpzjLXbgTQZPlekhv72VOcD+Gs8WthatZnF9M/62Fi/Gh9Y/rVOBc6J8CvA7eZYG1U/yh6Gb6fEZzPsdgZYJNKxx8ivFzmKWE5fA5uDvjAlefvXdYd7CuVnFqBecV4yNe0/GWAZPE7i7H8Za8JeiSJSJCOXz1kWKJURqdLw0zDJ0XtINdtgRMJr8wbVeY8uRHl6pxnfe66UzXd+ccP9M9jusf7e/rlL70yGZGyO69nOJL7Xx5RX4T/gnjwg2OnxcRkrOPbfD/YBPb9RgTrpdo3Vusadrpzo9wefDjrOOP+9T3mXs/peAjGz9cl0B2MA72vs/C37cnfXx51JL4+DKq/nWXm/mxSf/ANpF49NZbbvqJGbj04tcrZpp+PHvL/rD9Y0F8U9F9gyrGh78AOP6mMiqFnnWd7vGNK6eB9GYpx7q63in+qY55fZwSD5H6RDWWs2x8ET5yt1WNz/HLFHyy0J/ChGSJkYpewYSjySwc90VN9qV7B7eljf7hpaOViSorCwfHvYxAr6x2kvZmmfN96PiosK0Bn1Z+XJ6vrwzGkG6Cxd4iq3AkOiFACBACTUOglcG4aSCSPoQAIUAIlEWgGWWKslZQf0KAECAEWo6ANBjf3t623DxSnxAgBAiBdiAgDcbtMIG0JAQIAUKg/Qj8DzasVm/aivIAAAAAAElFTkSuQmCC;" parent="1" vertex="1">
          <mxGeometry x="160" y="437" width="355" height="26" as="geometry" />
        </mxCell>
        <mxCell id="wLfKBq6g52r6L9w3R0K2-40" style="edgeStyle=orthogonalEdgeStyle;rounded=0;orthogonalLoop=1;jettySize=auto;html=1;" parent="1" source="wLfKBq6g52r6L9w3R0K2-11" edge="1">
          <mxGeometry relative="1" as="geometry">
            <mxPoint x="790" y="927" as="targetPoint" />
            <Array as="points">
              <mxPoint x="300" y="927" />
            </Array>
          </mxGeometry>
        </mxCell>
        <mxCell id="wLfKBq6g52r6L9w3R0K2-11" value="直接保存" style="rounded=0;whiteSpace=wrap;html=1;" parent="1" vertex="1">
          <mxGeometry x="240" y="627" width="120" height="40" as="geometry" />
        </mxCell>
        <mxCell id="wLfKBq6g52r6L9w3R0K2-13" value="key值是否相同&lt;br&gt;" style="rhombus;whiteSpace=wrap;html=1;" parent="1" vertex="1">
          <mxGeometry x="606.5" y="477" width="190" height="80" as="geometry" />
        </mxCell>
        <mxCell id="wLfKBq6g52r6L9w3R0K2-15" value="" style="shape=image;verticalLabelPosition=bottom;labelBackgroundColor=#ffffff;verticalAlign=top;aspect=fixed;imageAspect=0;image=data:image/png,iVBORw0KGgoAAAANSUhEUgAAAZ8AAAAVCAYAAACZvuOeAAAKe0lEQVR4Ae1dO2/bShb+GOTxA2Kl2y5WhHj1A6h4EbcytlCCVZ1qqbQSUiUxbhZ2XAVUt/dKt3KtXFvFXap1sI71AwRnZfl2u5WVlHkDmcUZcsgRJVIURT2cDAGCw3mcxzfDOXPOjGWNMcagLoWAQkAhoBBQCMwRgUtz5KVYKQQUAgoBhYBCgCNwWeGgEFAIKAQuCgIUqPn69Su+ffvG70XKfenSJdB95coVaJq2SFEuJG9Nhd0uZL8poRUCPxwCZHA+f/6MZdspIAN07do1ZYAmHJEq7DYhYKq6QkAhsBgEyONZNsNDSJBRJNnUNRkCyvhMhpeqrRBQCCwIAZrk53m9Papjp36EtxHOZM1btnniMCteS2F8qjkNmpZD9Wy8mmfVHHdvo9Z3KZ5VkdOIj4ZcFEZuwx8x0UKJsMpVYytfzXn9Kfqs1IpNLrThrOkT80nGaKiwy1rYKjnf1fJ+H8vo9YjuTNb49FHNPYOm/cO+S13BxnmOKwdA890U36+P4UxeEzU+1VwJceaX8jGDqUfXTzd7YOwY5dXhNq1SwMezWsYxY+hNwmiY/FLm2BOjp7eYjMnQxjMgedSYBSOutq0SKii6/bNaPp4p7rOmTzBMOkbjQrewdvkaD2ldtO+Dsbc4qu/g4NR+Pn/+HDs7dRy99f6ChLFTHOzsgMroPji1y7hns3OAU8ezEbR2Dk5xerCD2qs+tP4r1HZ3QXns7RHqPtqz6a8UysfPwNhPsAxPD4/XuHIAq2VsZSuY1YLPkyV+KlHjE1+M5FrmawzHo6zSFCwGJnPHe+IT+5J4UWJibFdecONPkzEj46GbYMflKTSP17TVrMPYmj/feNKqVt8DAieNfeD+Ezx58gTFtXMc7r/m4TIyKK9/baC/8ZCXPS7dRb/xKzdOK+sGimsnaDR7HIJ3r/dxiA08LKRx695TlO6mwFJ3UXr8GE/v3bpwMOULBurb8aMXs1Y4GePjuOyVdh2b0uQ8EN6S3PrA0NcfXmhs4rCaRH+AbwII2pM54ytDcv3lO5KhE7Llcm7oT9N8XqIUFvR7LOTN8TxpGePmua61AcsCNqU6ftWFh+Snz+v5+A+R8ZUHe1QtNOs6Mjf93AF05f716S8wcsbPqD4clD83HFYIoz9CnHhZTkjSkdPFKRQfr43Qa7j/4klDrQYWR6XW0DunHAHfIAkEfaGrK7vIsIWQxnZcjztIgvH5NzbuY33FPu6c/ssGbpz38Y6a9f6Nw/M13L1z3SZyPYPbN87xpstLkS48xEa/gYOjI+wfplD8+x2sBByb1lbWYTw1XD5BUrVKTsis1MVZ9WcnfPazs60ghcyccJpbXxN1gihPmJ8vwGg3QrYzxLj0QuQTcpiqejLGx3HZTd2AJU3OgxNzYaCs2Ej7XMI2KpsNFHvO5N4ropH2TVBhqi5z2IBkswygDVe/ntnBtrT3VH0g6U7hwWIDmvNx52uOF1PLuwiQh2cZOsw9ycPI12B2tkcONpq4G0UKV9r4cvqu4WqhlJb5kxXbRN3lBoTJJ1UDWk3UkUVmREi0XvF4+PUHwscHTYCy/Fa2TXAOXOH0B6pO8ZJHRgfs0C+D6JJwfPKoUf8bluuVU//x7yUBz5Qvjhz6rJaHCENyGYWAY/ANA0TQE3VIdj6eRQbtiYWMX6nazJKplGNcfBze9fvQtDd4ubvLQ267uzW86nt/k6NpK7hzfwP9w0OkigXcCjA8PrKhr/naMydcdoLf8TcePuuZQCX9G1qwQ2ZyOI3qM+vPoTTjFdJYbaP7R7zWs26VjPGJJGVzwCuq+GcO0Lcp7eOslrFndtCMs4kUSZ7olcTKj3sMkmdH72IlG4maseXtg2SyaItRcVZFo91GJe14OJqGNAFUbzp7aHlk0OVpvvrnRoM8jOFJvrxXROOBz9Um+llv4iNZaUKxss6qqNVEx9xzZQPyqPVMuNtwY+Xzaa9n4JlJr0zu31VZf14lfHyslreQraTdTfHNugHLN3GH0/fkiJ+y+4iM4MDCKgo+/oVBq4RG8dFInGLJx+mL8QL83shiayD8HI5vLJ6iURT9Rd05P6+nvNAZheTEbayvcEl4WG7/EKmNDfQbTXf/JxEx60CmnOKkVjM3AJyjG+FQVSK8JSKdQKa0t0uLUWneldrNOjkf40MhiU0MeD60UBu8AkI1g5UW8sZXlpJHJ7wHeg5MQtNIR/szQzxq7uSUyXbQPWuhm7Vso9HqomMU3HKXtbPRmKv6T8i4NeIlxsg3QLRtG8qBvLCXSONDfCiOZ0zOmeu5hRFPskyHadES9sGwdxkBn/JWFpUX9mqqug2fcZhezr8WHW+aDnxkpbERCd8p+UfQf0oO8Zqnb2Pt/BD7r+0wGxE5PfAOGfSav+AwVcS99XXclfZ/qB4ZLojwHTD5gQNjbfj7jKfFVK2yo8IQU1FMpnHCxocmSEcwJwbuhoXl1fBZFdtyTIc3aaMir9jPqnhQyaIwagmdjO7LQ2W1jCLCT6bkC1l0XzTRydwEpSubFYzeWAEoTJetVLywGdEfCse10Ow4J9LyBWSdwwoClNaLihfWiiCfaAeKM0MaB27BmMSY8SEf3R5DKbhY7Hu4gzK4amDJzTKOrSwqckg4Kj7COwnyeqaUz/YOXyC33YH5yPfhjME3UF+pwF1Bc2MmfcBR9Z9SP0mUyElNu4XCww3g8Bf3tNub23Z4jU60NU7WUCykOb10oYi1kwY/2WZn3MYaTnjIjk67JX51zmFPl31UtzuJkwda6LZDFvWiP+a+iHNUpZ/XSeyyA5l0NpABOjN7HmXLoDxx60zX7bRhMWbytM4MQx+oI7cXlHqmzvShAosZLm3Bg54Gs0RD5zm6va9S0q8yLqSw/53zG6GDbnqS9EymS5iauoevjZ+tt8CG9MRQexkbMBLFvWSZCEvDsDF1aYyRzyVE6g3S5rI4/cN5yrwcIcLGB5GWdbTHkde3UegTDZuH104SeWxSjFE+9EbIz1hEfHjb0TJMI59QgGMx0LF2STi+I2Tn/SXJycefGD86M01+BpjB5TWChjt2ZBkkmkLoiM8PHz6w9+/fL+X98eNHVwvL+IkBz+xbf8V6vVdMh8h76cxJ/2GGm/dPZpovnTYv2b8skXZoCFp4Zn+z48qFJDTWfH0giuhpfzfePCKXzSN94X7bjfZfHmAvdrhr2vYzWJ58fyRpRbWdWcgx72Aw6WTPJjqmb78muMFsSlol5LqPRozfJZFvNlqDVuHT4v/p06eF/5hoEDyXL1/G1atXg4oXkk+nEpsF71CMXwjaP65kLdAhlUVcCYfd5qNCm288T3g80AkD8o38+Yj543Kh8BLCjnguAJqzLjowEt9nmVSTwL2eJZFvUn0i109Av2Wb3IXudPCIftl6qS7a2uiY7mnMIdn4IRF9ODw7VHF2GRfO85kdFIqyQmBGCJAnuCntkUCH2VvMCaMZaTg3svQzNl++fHEP58yN8QhGZHTEv1Sgp7omQ0AZn8nwUrUVAgoBhYBCIAEElLlOAERFQiGgEFAIKAQmQ+Ayvv5vshYxamtX/xTain35b2i5KlQIKAQUAgqB7wuB/wNZ/q92NfuwLQAAAABJRU5ErkJggg==;" parent="1" vertex="1">
          <mxGeometry x="80" y="597" width="415" height="21" as="geometry" />
        </mxCell>
        <mxCell id="wLfKBq6g52r6L9w3R0K2-16" value="" style="shape=image;verticalLabelPosition=bottom;labelBackgroundColor=#ffffff;verticalAlign=top;aspect=fixed;imageAspect=0;image=data:image/png,iVBORw0KGgoAAAANSUhEUgAAAfMAAAAtCAYAAAC6TIKgAAAPLUlEQVR4Ae2dT2wc1R3HvxP1SMqJ0AiOtrGgC4i2h9lDhSUq5KVKo6pOKiHkC5kVJFB21Qshlu0acopmm4Bi7cIlAiTChsqKwmyjIixy8B7SkjQmYNY5QoyTE+qdV/3m387Mzsyb/TPrnfi3kuWZ9/vN7733eW/e773fzO5ThBAC/GECTIAJMAEmwAQyS2BPZkvOBWcCTIAJMAEmwARMAuzMuSMwASbABJgAE8g4AXbmGW9ALj4TYAJMgAkwAXbm3AeYABNgAkyACWScADvzjDcgF58JMAEmwASYQHJnvnkFeWUB+crdSGqblWUoymL7r7gRqRsnqOTzqGzGaSSV3cGnU8dRvP8NaMe+TnpRF3pp2++iKBGqm5U8FEVBsRGh0Gdy2vb7LB5fzgSYABPYFQR+NrBabl7BbBnQW/MojfdhtVFEGTMQ/dhws9+H51ZP4qFjx3HWTRvkQdr2+y/reGkNLeRxqn9ToRbSth+aKScyASbABJiAj0Dylfn4b7EmFrBWesBnwD25dRdN7MNkn064sVKDNldyzd7rB87KllbPwb98ZRMy+T3DZ7OCvMugiI5Agkx+z4DgijABJsAEuieQwJnfRSW/EBM630BRWYBS+ArAVyg4Yfb8FXQfKW9gpaZicqxdkUqenFwelUrR4+x6CcNvt0Pue8/jejsLXD9mheIpHG+G5KdWseWRA1/jvb0ynWj7PlOBE1rZ0u/2hP2tlcYhkwfMRZ9uxDjLhpetAppEBD9WO9gTjnwe+XzFrxJn368ZetY4VUbOcDhUMR3QkskD6nzKBJgAE9hdBOgX4JJ+DG1eQPsmXN24IIALwgiXJks1NAFoHTZ0Ff70li7UEL2oTK4dfV0cue+0uLRpaZjnR29GqG+LS0+/LhbPbNty6/yIR//2mdPiyNOfi9u2Rnf2I7JNMbmlqwJQhd6yMqFz1TmhJMPwMSfemqchg/qGBgFVd0sste9qxhwYmr9MQVWZPKjP50yACTCBXUQgwcp8yJMbdbJjVUYl0AzPam28hHP6OlY6YrExZZ19Bs/ZK/4HH/kFcHO7vfq+fN5ckVsr89O4+KXiMbQPDz0GKO9/6OrM/yOHxdUp7PdoIc6+Vy9wLAujy+QBc5GnmrHmvsswPplDc+OWR3cFBTfEraDc9IgAjJfmkCtPuJGRQk2DseZ/FBJv328v7KyyVEOzPBv54qNMHmaT05gAE2ACu4XA6Dnz5kbn81L4Q+8DbRxy5Idu4Dcfv4Xqj/T3Fxx4yv9z9U++c9KULbz5oJm18uVnmA+E6nstkyyMLpP3mq97HT2LLgCGJ9RvaK7UPphG1SMXBlAIhtmDl3RxThOW+kwLojWD+mwFjaICxfP6vUzeRVasygSYABO4JwmMljOfPggN69joeGTbRHnW/4z2Uj2Hg94Hq+4LUiEvT0maTvz0OH79rKW09fZHgZW59bz8vcvA/ldetRz+x49LLGZM7I2GbFawVPOXf3BfFfTb9Z6ZkQKKuMzUUVjXIarexoUVSYiRe23xMRNgAkxgtxFI9tW0xif2C24Ufj4PxR7sNWMe1bEryE98jias0HRBoRfhKC5+GKI62SXPaRzUClihCLDvrXgVWq4ORSm79lS9hTX3LPqAXm5bfl+Bgg+h4XksPvIZFk5sQ8E25qeAxdXDeHn2OJbvv2EaeejN53HgqQ9w8cRpaN8+j9o7lu2rh97AVTsb8dOD+MO1V/EkYL48F28/EI6PLmoqElrVTphxc4WW36iiCKVADViDAgOiWsJcjl5sc9iqUFWgVrD1TZ/aRHlCgaMBaDCEFWaX2/c75bBKUvRBN190BKDq0FFGvvJ70AuA9JHJw2xyGhNgAkxgNxFQ6P2AkaowvVm9NAnheSZLK0Ocaz/zHanycmGYABNgAkyACewwgdEKsxOM6Sp01CNfhNphXpw9E2ACTIAJMIGRIzB6K/MAIvp+s/t2tar7VuwBVT5lAkyACTABJrArCYy8M9+VrcKVZgJMgAkwASbQBYHRC7N3UXhWZQJMgAkwASbABIDEznxry/8DpwyPCTABJsAEmAATGA0CiZ35aBSXS8EEmAATYAJMgAkECbAzDxLhcybABJgAE2ACGSPAzjxjDcbFZQJMgAkwASYQJMDOPEiEz5kAE2ACTIAJZIwAO/OMNRgXlwkwASbABJhAkEAmnbls44+gnH54RlHymfxVOfptedqaVRvQLm3BDmCe0yY1A9wFLTSPPhJHpf3od+jzlY5dgNyayeSuouRgVPtvcDc7STWGJL6LSn4BirJo/RU3AvnK5AH1HTgdlf69A1W3sqSf8La3YI67v5KWr+v7Rzb+pS1PWjGJXvaceaOIMmbcvbk76hciL60J6GqHZiYSaPtVZ+vV1Ao8TputlOHZdTS1rHoxnOX267q+91j/7br+XV/wAEprCxBiHoYWts2ETN51hgO/YFf17zB601XQFiGtQQzSvdw/svEvbXkYkx7SMufMGys1aHPWjl1h9ZXJw66JS6PVljNrDP4fxCwyLu9hyqYPaqgt+beZTZK/jI9MniSP3aQz6P6bNrtd077uFssU5QvZZlkmT7sh2L5JoNf7Rzb+pS0fRPNlzJk3sFJTMTkWVXW5vGiHc8gxJ1mJ0vabNGsM+3O26IwqDaW7IbRKO5TUT8jfDbsf+9qTrbXnOoXj/SH5drq29ww+pa1lb63ib3tDQve0l3yz+w1uZHxkck8lEhw2ENp+voFUgeJ7ZNC+xpl8meFi6gc+vQTZp67SY/8dUv3HJlWogZuv3/ZtFO0QeXEDm5VlO1y+bD8S84TI7fC5q684Oqk3iplB41QZOcMZB6oIbuwrkycrZbuv+santNs31j6VPFgu+zxfgTOZc8ZS995yEszLvWOfEvuoKoqTNY7SRIru23zEY8Ee7x/KVDb+pS2PqngX6dly5o0V1JDDpG+vc09tZXJMY1KlLbNbpnOuBu9Ij6lBHVohtCbKZdpO3B4MWjOoT4TM7qWZ3sH3NwHxAu2z/qilbTrnD4ALJ1H98S3zb/HkNs6az9gfxYsXnjD1Hj75ZzxHk6CxKRyYBcRPj+Pl/x0292S3DBGbJjbI4Y/sJ7z9KrN1zLScgVagNVOH4g4m06gaGqAZ7v7o01V67KLB8GyzOxJV7rH/Zrn+09UFOzx+E5fwJzNc3tKB8sQnaMAKkXvD56QvjF8OvbloZba+Ef2+hEyerMA707/j+w8tSAo0eNkLGgMoFFCzN72iyZw3PE73lqD7zfc52B77hMBMfSLRQsoxQROG+ow1ZtOiysg10XSE3v893j+WCdn4l7bcW5HejrPlzKmO6mTHrNhX9Uh5E+UJxewUSVbUjk1n5hkMsdO5s9JzdOP+a4ZnNj9ewjl9HSuNuCtCZJdX8Z8/vtZ25AC2Guv4fo+Cq4esVTmtzBdObEPZcwP/vgzg2cN46QWB746v4jqZvLWKi+eAh09OeRx5O6+4Aaut1T6S8ZHJ25ZkRxHtt1lBvWnJnDaaoG32aitw8dK2uutL7RcgG0XUZ/4a349kxUlL3m3/3eH6D6x9a8Bk6QGT6vjkPgB3EOM706IfabeyVEOzPNvuQwFNmTygHnK6Q/1b1n9InjPQXvjYk+OQGkQnraDgiYi6u2BGX+CTjJfmkCtPuI87C7WYiXi3948vJ8RO2EhVNj72Kw8Up6vT7Dnz5kZ7kA6raqRchW7QlD/6hgwz128Y0bIZ92ggLNfONHLOy4du4LvjH1nhcltl+9sfzFX2S/aq3Fmd0/8Xn7WUnnztd3gY/8XFt+/g+t//he/wBA68QgNm5ycXGfbo1KUUGR+ZPNxqWGpM+9EqwYl6uP89kycApbkcyqcs915ZAuZKUeGdsLyHmNZL/x1S/aktgxPhgbWv9thoTq4AM5RsrgwpojZbQfCtfprQxMmT9Z4d7N8J+o+vDmOTSPw+MYXwzYW9s7IX6Fi4+4yHnUyj6t7XtPIHClGPyHq5fzxZysa/tOWeonR9mC1nTs8tsB49Y5fJx0pYM3Io9xTi7pqt54ImyrP+l8su1XM46A3zu8+twsPvFBYnh/3y7A+4+Ks38B6tugE4jvqs9xn65fPms3NHxwmtf3/iNJbfVyJW5Q1sNPufdHgqPfjDsPYbL2EGCd7EN1fnK2iM8qq8l/57L9U/rses34EV5L6LytJ6nGYqsiY9f6KI2kwdhXUdor1UNfOTyRMVKs3+HTW+yPoPydc9US56gn6q3BHmdlekpvOu+avrXS1vVrAUEPuVO8+CXzXr1LBTerl/XGOy8S9tuVuQ3g9Ews/t27cTaqarZmgQmhGdR5hcVyEAVegtIYT1AI6+wyIQZyg6i64luqoKTVOtPClfQKhmYTymWrpQTZkmvNW7dvR1of38uDhy30fimql+U7x7n5VG6e/+Uwix+blY9KSZ+kdveoy3ddp2/GKTi6oHEkfjVN5+htBsrma70nFYXcy29/PtpoYtXe1sN48BmdyjGnnYW/8dRv2dPHrnF1ZpQ5sXwIL1p34hWq0vhAon7YJ9L3wjNDftrND1C/Y1F8SnhnNs23BsYcEaJ2TysEKFpFl90OpXdBy8f2XyEJNu0lD6d8T4YhXCaVtrbDLvIe/94x0z6d7SNKF55a5te5zVze8IuuMr9Wn3voQqVHM8dsbxkLwD46DL1r3Ho/tgb/eP7Re8dXJbxz4gBmnKg/n1cE7hyUSfUXHmUqcjg56otoNVImce9N2DzSGBNdvhL57ZDlUOuwlCFbOcaGgdg3A31ZE5a5k8UV5p9t8+65+o/Ky0cwSG1r6G35nvXI07c+7x/pGNf2nLOyvSfUr2nLkQQuYcZfLuMfV3xSiUh1b4katymlnHzTr7q/7IXK2r0TP6kSlkgv7da1mzUv9e67fbrxte+46wM+/l/pGNf2nLB9RxFbKTJEi/tbWF/fv3J1FlHQ8B+n6k+/am/XUOjzjlQ/qe+Qe4ukcx8xFPPYPF1Snsqlakn4oseB/SqdBba9G/IJhyiwzd/G6v/9CBDznDIbcvvfzn3k5DH8+GzDZj2bEzz1iDcXGZABNgAkyACQQJZOtt9mDp+ZwJMAEmwASYABMAO3PuBEyACTABJsAEMk6AnXnGG5CLzwSYABNgAkyAnTn3ASbABJgAE2ACGSfAzjzjDcjFZwJMgAkwASbAzpz7ABNgAkyACTCBjBP4P4yF5o5L7ILFAAAAAElFTkSuQmCC;" parent="1" vertex="1">
          <mxGeometry x="531" y="427.5" width="499" height="45" as="geometry" />
        </mxCell>
        <mxCell id="wLfKBq6g52r6L9w3R0K2-17" value="是" style="endArrow=classic;html=1;exitX=0.5;exitY=1;exitDx=0;exitDy=0;entryX=0.5;entryY=0;entryDx=0;entryDy=0;" parent="1" source="wLfKBq6g52r6L9w3R0K2-13" target="wLfKBq6g52r6L9w3R0K2-19" edge="1">
          <mxGeometry width="50" height="50" relative="1" as="geometry">
            <mxPoint x="700" y="607" as="sourcePoint" />
            <mxPoint x="696" y="637" as="targetPoint" />
          </mxGeometry>
        </mxCell>
        <mxCell id="wLfKBq6g52r6L9w3R0K2-18" value="否" style="endArrow=classic;html=1;exitX=1;exitY=0.5;exitDx=0;exitDy=0;entryX=0;entryY=0.5;entryDx=0;entryDy=0;" parent="1" source="wLfKBq6g52r6L9w3R0K2-13" target="wLfKBq6g52r6L9w3R0K2-20" edge="1">
          <mxGeometry width="50" height="50" relative="1" as="geometry">
            <mxPoint x="705.99" y="564.04" as="sourcePoint" />
            <mxPoint x="880" y="517" as="targetPoint" />
            <Array as="points" />
          </mxGeometry>
        </mxCell>
        <mxCell id="RuvH1S9MzytwJ9hMgLc5-1" style="edgeStyle=orthogonalEdgeStyle;rounded=0;orthogonalLoop=1;jettySize=auto;html=1;" edge="1" parent="1" source="wLfKBq6g52r6L9w3R0K2-19" target="wLfKBq6g52r6L9w3R0K2-37">
          <mxGeometry relative="1" as="geometry" />
        </mxCell>
        <mxCell id="wLfKBq6g52r6L9w3R0K2-19" value="直接覆盖" style="rounded=0;whiteSpace=wrap;html=1;" parent="1" vertex="1">
          <mxGeometry x="641.5" y="637" width="120" height="30" as="geometry" />
        </mxCell>
        <mxCell id="wLfKBq6g52r6L9w3R0K2-23" value="是" style="edgeStyle=orthogonalEdgeStyle;rounded=0;orthogonalLoop=1;jettySize=auto;html=1;" parent="1" source="wLfKBq6g52r6L9w3R0K2-20" target="wLfKBq6g52r6L9w3R0K2-22" edge="1">
          <mxGeometry relative="1" as="geometry" />
        </mxCell>
        <mxCell id="wLfKBq6g52r6L9w3R0K2-20" value="判断是否是树节点" style="rhombus;whiteSpace=wrap;html=1;" parent="1" vertex="1">
          <mxGeometry x="980" y="477" width="140" height="80" as="geometry" />
        </mxCell>
        <mxCell id="wLfKBq6g52r6L9w3R0K2-21" value="" style="shape=image;verticalLabelPosition=bottom;labelBackgroundColor=#ffffff;verticalAlign=top;aspect=fixed;imageAspect=0;image=data:image/png,iVBORw0KGgoAAAANSUhEUgAAASYAAAAgCAYAAAC/6tVzAAAHgUlEQVR4Ae1dvW7bSBD+eLhXSA7pT4aARA9AFgHuOqoyEBi4zh2FKyWkDSzDrUFWl0Dq3OVgB3CRI8tDUogPoAQWpPRB5IfYYJd/S4r/+qPsESCI3Jmdmf1mNdwZiiuFMcZQ8vX9+3c8e/asJPem2Rz0lC7GsljVBJv05ZatHVuahlkHGI/dUIdqzjHpt8LzhaXhaACY8wmk5pBOB4QAIVAOgV/LsTWBS8eIMYz2aEr79QQsx4CP1y5g2BSU9ugjUv0wEDigwNRwwBcWrl0V5pXecEPJPEKg+Qgoh5PK7Q9MS1MwCDK4HaaP+xsxaSYE9osABab94k/aCQFCIAWBX1LaqIkQIAQIgb0iUGnFtFdLSTkhQAg8GgRoxfRoXE0DJQQOBwEKTIfjK7KUEHg0CFBgejSupoESAoeDAAWmw/EVWUoIPBoEKDA9GlfTQAmBw0FgQ4HpHpY2hKKce+/ebD8ILD5DU4bQrPtM/QvrXWQnt7emrfzZOWuRqaYeoYT99QQ/nF6b8t9hI8KfG1WgaFb5YSwsaFX4y0veCueGAtMT9CdDMHYG2yj9TPBWBpQrdPEZp+Ih2zNhK7eXjdq5XVKJTg8DnBzcM3FOb1g7EKfisOvGuv5zelD4F3nlvYWLSwom/MkBrlvzr2T8Ye/QllrBgj83asNI0ZXZ1OrjTWeAnpPJ0SjChgJTQ8bUeokJG2LSf5Ju0Ld7uHiKdrQhQDpfQatzO4bxZgu7GhTZX2BXKfJ0iU0v9Erp3QTTGv7jO0HwjTTmpgrDZuLYVDdhVLGM/oSB63IHl+BxodWfgPHAsuPHm/RjA+OLCqus4qFtjaNCYJqhp0jpmvJBgFzesmT/cyjaZ+lLkqRXkV+USvqyu18AfEE3SDlj+suOxMHtWEX794jfuyJqsCz5ylzlapxvv1jp+GlnlMq8S6SSSfxkfD1ad6wA7v84Shl/qCOP1pshW39iDEKObGPSvqR/E/1jvtmk/yK/yUdOL1rVBMeKIvmQp0Lyiiu50imiw4BtA92cJUuwshKrqQL5K2IK9QPQj2G414l5I6PQoGP+EG/ha/6JqThjhh1xzs23DLhhUpMg2sYZg3EXMYqjJTPVeLvor35ic06vID8heOU0Xb/PZt+k2rwiJK9B5KrGyrhNFQyQ2ucmU+XzPJkSLct+r/2GmeZScMfxL8DXly9kBJhLOlcPPXmqr4vTS+mXZQus3zKTO7jQv3fMQHx+CH3J+bUB/81NNTaPY2P36hCML6m8l81s/9BUVW8sPoXLifgYK6Z7cyPis5mhmqF6Pn9UAZbXJOSHdJsZkPXzczCE9GL9gSKuJxxe0NjAz1Lbniw+foULBW73PL5RG5a4dV5BL9zp4wnaHQDjf6EEO72pf2A+eQmeVa0vf8eRXm0jbciGPYraW31cmRouHZTAp6T9Y6DNvDS11X4KYInZAtBb+fiWku58gCJWlAG3AvUkOPY/s/TjDtfubzDnnj8Ft/4cBpbisNC/+IoxOrClep8++gvG+H3J+ZWwc43T+OZ/uuc7saWNC/dIwSAm+xbOSIdeRJf69K9OoJ1a6E+k2ibv37Fjmw7ydM+e8RVbH/1vt5iaVxiFJQgdo7mJ6akvuIJ+3mPqTRrJquYdlgpM32Y/AD5x2Kvoi1dxLPpoKDZZ46nA0WDppxT3QiY2IL+iOeuxuzORxsaDUzy9W09BRm/jeSb+efjG7UyR7Qclwz7DSDDztOofXCdZc/QnWYE2Rsz78jlF/s0pyE5n94CeUTNcVbq9lqJ6UBE9sEwUoXkh3AS/Vm/sVVY//yavW2TdmNHZgkrVmPTXf0LFFF351jqfzMp5ySq/VyPgeXGr/7d3R8x+EVq1vvxQ1PYPeJ6OqVipxJW5GJzGC4sfrzs4LowKcSn1zvLxTZfp1XSin1a8CG1dWDcYuEp6t7TW1lN08AODS/lnIpH8Qv+K1VV8fjm992IV9SbrRkaaHdtqa/Vxgpw7WkX0hF36yEZnMIiyD95/epGo/Ti4nfp3fvVjdPzCeSDKuRwg2CIMpfU7mLk7uIAGRq7zWTq99OsEwJCF76CWJHJ/qV3i8fJZv4YgtQN+/SEwIE9+wJP3mWGD0J8mm9sS2J8nN4VmG6t5Oq8dGIbKfysRvuWaQYqYeFOO/V69xceX13Fi47lh/7ES+AptCT6pJiTrUM07ryboYyTTkKLfK8MkZPO+kvygzhTOnRX8k/2l+mVsvNI8q+A/UbORfMP9FNVa/JpNJp2Dl8Ij1Xjy6F790ZsXwZwQ9sj9RU0ymjtx+0SRL5xXYo4ZRqLOVGSfL0PWGZ+BjTqjbU/qRHX+u5iLduyPEPgPLnFFf0JQB07qsxsE+N3G22Pmp+u70VlXS6lUrq7wB9tPH8HEgdx2fbBOoIFVQmBh4WJqHkRQ4uOiFVMl76Yz057g6bhQKyFQFwEKTHWRo36EACGwNQQoldsatCSYECAE6iJQKTDxf+KlFyFACBAC20agUmDatjEknxAgBAgBjgAFJpoHhAAh0DgEKDA1ziVkECFACFBgojlACBACjUOAAlPjXEIGEQKEwE9WAp6jOwHTjAAAAABJRU5ErkJggg==;" parent="1" vertex="1">
          <mxGeometry x="940" y="472.5" width="294" height="32" as="geometry" />
        </mxCell>
        <mxCell id="wLfKBq6g52r6L9w3R0K2-22" value="插入红黑树" style="whiteSpace=wrap;html=1;" parent="1" vertex="1">
          <mxGeometry x="1210" y="497" width="90" height="40" as="geometry" />
        </mxCell>
        <mxCell id="wLfKBq6g52r6L9w3R0K2-33" value="是" style="edgeStyle=orthogonalEdgeStyle;rounded=0;orthogonalLoop=1;jettySize=auto;html=1;" parent="1" source="wLfKBq6g52r6L9w3R0K2-24" target="wLfKBq6g52r6L9w3R0K2-32" edge="1">
          <mxGeometry relative="1" as="geometry" />
        </mxCell>
        <mxCell id="wLfKBq6g52r6L9w3R0K2-41" style="edgeStyle=orthogonalEdgeStyle;rounded=0;orthogonalLoop=1;jettySize=auto;html=1;entryX=1;entryY=0.5;entryDx=0;entryDy=0;" parent="1" source="wLfKBq6g52r6L9w3R0K2-24" target="wLfKBq6g52r6L9w3R0K2-37" edge="1">
          <mxGeometry relative="1" as="geometry" />
        </mxCell>
        <mxCell id="wLfKBq6g52r6L9w3R0K2-42" value="否" style="edgeLabel;html=1;align=center;verticalAlign=middle;resizable=0;points=[];" parent="wLfKBq6g52r6L9w3R0K2-41" vertex="1" connectable="0">
          <mxGeometry x="-0.2657" y="-1" relative="1" as="geometry">
            <mxPoint as="offset" />
          </mxGeometry>
        </mxCell>
        <mxCell id="wLfKBq6g52r6L9w3R0K2-24" value="长度&amp;gt;8" style="rhombus;whiteSpace=wrap;html=1;" parent="1" vertex="1">
          <mxGeometry x="990" y="727" width="120" height="80" as="geometry" />
        </mxCell>
        <mxCell id="wLfKBq6g52r6L9w3R0K2-26" value="" style="shape=image;verticalLabelPosition=bottom;labelBackgroundColor=#ffffff;verticalAlign=top;aspect=fixed;imageAspect=0;image=data:image/png,iVBORw0KGgoAAAANSUhEUgAAAlIAAAAdCAYAAABhToLjAAAQGElEQVR4Ae1dS2wbxxn+aNjJtU4s91grtWTBNg92TiSchxskAAkHUBOz6c1ADSyRI1kfEquGFchOLgZ5C0K2KWAgBzdMahV1l0BR23Ee5CVND6oTmQqsnP2Ae8g7QKaY2Z3d2eXszpIUKcb8BVC7O//8j/nmsf/+/5CbYvY7LJX/L3R/ln0atdwqiqkLqCOlVNmJSudFlGbcorX3kZ29grZax3oBrDan8MScNt+Fzgahf7dGNhfVi3xFdbOYwvI8Qy3nF1azWaymgXq97RVmKh20vAZ6xfqTGPvnlxeRr7vYZQ6jcx445mG1H/9g+/A3E75Ca6gfuKzW4+Bd0Cz6OjKVF1BoXEC5nRIY2bgQq99mzyOHkGyuT5EPY/+G+ffDkQtoebn8HvpvrZrFbNnvG8Fuyz5sopjKoy4w8v9ZHp2XaepkKmCtkssQTa9mU5Cq5ZgQ9jQKPv9aFdnZMlQLA/qbRaTyioWWBateR92zIVq/1yIuY2nO1+kR6IQQIAQIAUJgMxFIMcbYZhowct2aGxJ3pHC+5TuGIzeKFBIC8QjoHgDiOYhKCBAChAAhMAoEtoxCyVjpyNVQQQPVtbGyiowhBKIRWKtiaaUSiKJGVyYKIUAIEAKEwCgRmLyIVAhdNXUDL9USqkSXhAAhQAgQAoQAIUAIaBCYeEdKgwkVEQKEACFACBAChAAhkAiByUvtJYKFKhEChAAhQAgQAoQAIWBGgBwpM0ZUgxAgBAgBQoAQIAQIAS0C5EhpYaFCQoAQIAQIAUKAECAEzAhsNVehGoQAIUAIbD4C/JdafvjhB/z444/is5kWbdmyBfyzbds2pFLqb+xtplWkmxAgBDYDAdpsvhmok05CgBDoCQHuPH333XcYt5+9487Ugw8+SM5UT71JlQmB+wsBSu3dX/1JrSEE7ksEeCRq3JwoDjR38Lht9EcIEAKTiwA5UpPb99RyQuAngwB3WMb1b5xtG1fMyC5C4H5CYCIdKf5KmLhfNjfRf9oDgL/XLYVUtvrTboZqPX/X3SDtGZRftYXOuxHgr2XiYy6VQjZu4rmcuvk3jtEo2dDkjtRtVLOLSKVeQaq4Ktn1R/5+y9QistXbevqYlvIfOE6l4tfXQUzn77nk46jYHERKNO+w5XPNw8YounUjovQ433u2agzX68lzpJpFlFGIfq9emK4MCnkzcI7DWyzUgeVMOv8GJCe6sKEv5yGHGrNhqUoGOV+/iun6n8VnV+0qTlx+07s+sW4S/AVO1EL1Q/Ium0Rw+kwJp9Ll/hfXQfmT2GioU80Wob03bOr4c51u1wkSN6+APRE2h9uaq4m0XKeSCVO6r8Pzr7uGV8LYHXxYP4OLN27g4pkzOHv2LM6cuYgbjOHGReeal1284b9OlN35EHW3rkpjzJGhygrQBV8dH97xZXmGaE74i8S7naUplFqLsK1kMjRiR1YUOR4NFpRaDEm62SAmkjxTaiHROIqUEE8YtnyufdgYxbdwBNRe5ns/5ozBeh02e+wdqYDj4C7o0qFJ8nQbbnBzuQ7rVClc7F3r6JlKx7sRWDYT58NcLDxjlEnXLp8TN1o+0Rl3hDbzdTbuzVTcWKcPY/3pabBf/gpfFA/j3MGD2M8Ynn/6dzg3rbZEd74L54rH8dJDP8NLBbc+l1c4gP0PHRDynoJzMzf1dW7eQn2p/yjboPy61m1U2eaNP+508xtjBpUOc971xxfJTgUZPv5YDbmNaqQrRzf/TCquNz7F3oUFnDxZxJM7r+OdV1/Fp3sXsLCwgOITU7jeWBbOFZfTWQWeW3BoJ4/uDdA4XcrivA79j4mdpy47V26h71d6zjyOFltEqzTVJZYKCIFJR2Dc1uvROFI8FKc6QT1EUhzHwXFeeHhf/bRKMz2OpyaW6xnM7Y5iM9H1fM2in7aQ54Hwtqn9Jjos2DaQj4lny8iVNlIVkt8lJkSPTPvJennAZu6NVYXk3n/w7NvrOPKb4wmcKJ/xmWng0s3/eQXrN9ex59ED7rVzMy80ZuNTBrl5WO3ul1F7YfSqn14K9I3UGsEvyVFHk3z5ICAx98aHXyBSFeV2HXlljpgcR9UeKZPzyPNAG2W/Sfnh+WegHykAjUu+S7B2qYG0+jASiFL50VPVxmTn/c2/fYV57BFt24G5vTvBpp7AY7OOxofn9mInbuP2Xed6z6FD2CF/ruDhqQCN15CyRO3Zx/DkzluCN7XjEKw/WDi0w/RTB6sophaRr6eA9lXM8jQe/2TfDzlVt/w0X+pdJRqppP8iU4CODiE3Ur7T3p7/u30ZOx6T9Pfn6po/hOj9qio/FBlNYF9wvcx2bw2Ik98zqFEMmogvrxo7H30euUZ4cz48r6PUxpTL9UrcR4pNhK8FawJ8o1RIef7y59w7U7KAM8a235VsXK8lTkMYe5rGjcSRqh5roNDxnaBOoYEAcBrDhlLUXEYdacxF+V86eq4GncNWarW89GCuxsBsC+3yLPKwXWfvFOY+d1phar+JLqTkaqisLGn3dvFFoVFwombc0RT4epOqieKsij/3yPKoKwAn0S8WHk+OJhJx7xPXiXoOxe2K8ASn048exJ51Pw/4z/XtyIWiWTwczjoFNGb5xAstnA5AmMu0sepiLtU6YfQ2ymXH+ROOuJATlpHT8ks5UUeT/HCqQI4VT54bBq9kLOGcygcFb8yNwfibKZ1CunHJM/lSI435QChqPmA7d3rVddFjNJ3o5p+JR0efmvKdJYUuU4E8Zcc/r9au4ZZCjzq9Lb2wqAqB8jnUmJu+yxxGh50G45/W4wgsO/XrwPlFQbOtFeS9PVNO+o/z6FOA3NG6gLr1W0cuO41OZWfAgoEuTONRCDf1dxvlvLLmaOfbQFaiXvbldyorWArsvYu3j9/M1fXSTrfRDpkTLz9Uue9LvuYAMuJcc+dU/HqcQ822AMv27kt8TRHrRys605LURBG4cOWzWg5y/RI2SgMRj2+cLilP1ulaD/keskT+Qn/rtdS70cfhO1JrVTTabZTFDdDxPmfLbaC+rDyFRTdLerAynacepUceza2hZObi0xEmukakLAoOthxyfGKY2m+iS+E8zXe+gMaxUPqK86f9ScWr88Fqp93oTHMZK5XzntMH5FDjqRkp16BfPu04C4/vPEp273gXOPLMNC69/Sae/bcfXfLosSe7kNu+jto9AOtX8dr2aTylqz9TQotHJbkvyCMQmrv1yqofOVFFWLbi/M2UcL6ygmXNpqQoflWW7jypfB3vRpUNb/zlMO+NpyLK6fnQHFoORNP49O77b4D5Z9TZ+QDv3dqHoydPirTfyeITiHdB7uL2LWBq6mGj6J4rWIe9Obl77udA4jTgFObSAOp/cSJdqVcw29iHTthR69mgXhjM/W3ZyloRM9960arWVeXPzKXRDjxBxdsnHgzKPMLt3I/ydQt2yAmJl69a0u+5c0/k66r30MRFGdZjoS38UN0solE4EZqT/doFQMj378/8welUIPsTj+8AmpO1X1EQvV47mQzGlHGo8G306fAdKW6x2E/hR6Scp27lxhbTKuEhh1J6XU/tMfxdpPZqvANnoncJTFBgar+JLlW4m+yyVcM3fmT9pMcY/eKJgTGI1JrGcfFU7D6I4vQB/L14HEfWrzhOkUc0nzz1yHa89skXuHzzJo4+siuSQTjWbmqRPzGF/9LacGNcOjcoQc8frNN9lVx+N+8ISmL6V2g30fnaOp9G+VwTYg+TGo7iYXjZH+485Q+0ff8NY/5FGNP54L2uiNT1ax/hDnM2g9/96BquYx/2zgLOJvXkm80jVG5Ica7mRLK8SJRIIarpwQ1RoxeSqL83cT4ksk/eZN17En8w8yL4+mZvfGkGFbsClI91ZxkSzMfSKWc+cruqSwg5OoNbe6TgRvn4lz/UB6dE+A6oP0H7pYb+1mvJvXHH4TtSMyUUMMA3qjaurfxuAAsriAhamOn92GJqv4ke0pmr2UiXy35qjvN3pfyaWF5xv5mYm0fa3aguRTXPlf1QdkL9PIVlI5/oq8fFRx2nSOoTR5lXj3LGpqdx9PPLOH7voH5/lcs/2yhEbHJuYrUdtYC3UQ5F8rrTU3H8at4+nBLkrTPL956cxEKkJlYlSsq45HU26ivepv410aV5fO7U88ivVJxN57KcH9Uo0loVS7rmqfWjzk3zM4ovabnY8+RsRuepvU+nnuyKSO3bC/zVTf298d4UCgvO/qukKvT1nH1PG/NTBs7+KD6NZkovOuk9e3+3WtN86+YIlcSMR2N/h+bDWhXHyqF08MD2hcxVLw326X5eQ2VPdL4R9u8uoWWnUZ5V1pTE85Fv9VhGMyoaNaB9TtTuHLJLK6icCD2wGvBNgl/kepi0/TCs17L9o3KQ2Uj+bGYB/DHP/2QqI9EcVmJbYJYdLvWvdfROJePb7bbBl6FpG8I6NHUC7Y+mVzI+ZplKRxgq7FH5OxWWUbEN63c2W/htsCynPzwZ0fp9ZOSZrJthwpybV9iu2pvi84s3rrB/iWrr7Pdv/In514xvIWOAxWKgZzc/fpcd+fieVOQcvbbF8zLeRq89QRGVTIZZVrAPJZZezRh+USfGDqN8j5djkGGVivj+O4M/iDhAfv/wOk5Xu6qDtvN55LPK/vDHSZDORWjqBLAy0R2U+Ljrwo1LF30r9WdYxh2zjo0a2WKs6vtTN/+49q+//pp99dVXQ/t8+eUn7K2XX2ZvffJlzzq++eYbB6DA/8+YhdMMWHQ+mWuMd6ltKWXWZ6xTeb2rDrPf8cskPxbdPg/JFfTXA+OFm5FkvgXMDV/EjMe4/nbWq/B8C47nQexT12IxvlQ73UkRZx/Xra6pzj3JH4tJ5A9iv6/fxURjv3m+cimikyPX1IH7nzEmsPAXGlepHFsDzHfjeqhZMwLrldv2cJlnoWt7aB1VyBt+Onnv2uOe6tIcWCgn7nnRJrpXkU6SI8C/QZHHSiW0HyC5AGNNvpdreV7zTULxA3hZ4Hx8rjyO36ScP+Ga5JtkEN1FIGL+ffvtt0N9UTH/Hanlsw2gsIBf7zF9My/YW1u3bsUDDzwQLNzUq+HPt8GaN+72mVo3JvY3i8iungjusRKmj4l9JhgHoJvWa/7lqHLahm77xwBqI1mHn9qLVL1JBL6RDt1fk/esMdG9inSSGIG1VazA2vA8vqefp5N0KSevguFkUH6DeCL3gEDE/BsvR8VvD9+wvG3bNr9gHM6GPd8GbeO422dq35jYH7k3akzsM8HYN920XosN+5nulGTfCs2MkxeRMmNCNe4jBMSTifwWGd/EGBWJ7LPNw5bfp1n3JRt/Fcv333/v/ZbcZjaSO1BbtmwRThQ/0h8hMBIEeMQ2r25C5D+WGx9tH4ldE66EHKkJHwDUfEKAECAECAFCgBDoHwF6lOofO+IkBAgBQoAQIAQIgQlHgBypCR8A1HxCgBAgBAgBQoAQ6B8BcqT6x444CQFCgBAgBAgBQmDCESBHasIHADWfECAECAFCgBAgBPpH4P/8wu/GRTntDgAAAABJRU5ErkJggg==;" parent="1" vertex="1">
          <mxGeometry x="1220" y="457" width="594" height="29" as="geometry" />
        </mxCell>
        <mxCell id="wLfKBq6g52r6L9w3R0K2-30" value="" style="edgeStyle=orthogonalEdgeStyle;rounded=0;orthogonalLoop=1;jettySize=auto;html=1;" parent="1" source="wLfKBq6g52r6L9w3R0K2-28" target="wLfKBq6g52r6L9w3R0K2-24" edge="1">
          <mxGeometry relative="1" as="geometry" />
        </mxCell>
        <mxCell id="wLfKBq6g52r6L9w3R0K2-28" value="&lt;span&gt;链表遍历插入&lt;/span&gt;" style="rounded=0;whiteSpace=wrap;html=1;" parent="1" vertex="1">
          <mxGeometry x="990" y="617" width="120" height="60" as="geometry" />
        </mxCell>
        <mxCell id="wLfKBq6g52r6L9w3R0K2-29" value="否" style="edgeStyle=orthogonalEdgeStyle;rounded=0;orthogonalLoop=1;jettySize=auto;html=1;" parent="1" source="wLfKBq6g52r6L9w3R0K2-20" target="wLfKBq6g52r6L9w3R0K2-28" edge="1">
          <mxGeometry relative="1" as="geometry">
            <mxPoint x="1050" y="557" as="sourcePoint" />
            <mxPoint x="1040" y="727" as="targetPoint" />
          </mxGeometry>
        </mxCell>
        <mxCell id="wLfKBq6g52r6L9w3R0K2-27" value="" style="shape=image;verticalLabelPosition=bottom;labelBackgroundColor=#ffffff;verticalAlign=top;aspect=fixed;imageAspect=0;image=data:image/png,iVBORw0KGgoAAAANSUhEUgAAAWMAAAATCAYAAABFl2yUAAAGEUlEQVR4Ae1bvW7bSBD+eO9weYLQEJDTA5DF9RJSGDgIuM4diSsppDWig9uA7C6QOncHyIUKgywPcSE9gHKIIPoJ7IfYYJd/yx9RFEmZsjwGCJK7Mzuz345mhx9phTHGQH+EACFACBACnSLwS6fWyTghQAgQAoSAQICSMQUCIUAIEAIngAAl4xNYBHKBECAECAFKxhQDhAAhQAicAAJHSca+8xWK8ndymJtOpuroOhw/Y9p/gK5MoDvPmY7j3jq6AkUp8Oe4Zt/e6B6gKMGhO+czfYofAL4DvY1F5eMoChTTO6kAaT8Z+w+4GgP29jMYC49p7+Un7ZkYYwRLbde0Z06g1NhcrCWDrVXzxTMV6LldpLquwgONH7oD39HxkjHn6CY6C3Ef0IeAywD+jdBojvxmXA3Go0rxNSlb36J+ih8AqoXr/rhxPPv3c56gwKaDo67zoYO3n4wfn7HCO/RaToKHTsxbzGBcW3k19Xcs2QRL69d8X9WW9ROyBXdV1SpygynDssYuwqunIVzwrxX5sR3NcTFeVTHZuQxPQPEmEm0m4bksccmO+/fAaAtEPzHrFph/kSXexvU5x8/g0sDs5oweeaSQbDEZb2AqEyjD7wC+YxjRFPqDlLie4eiThL6Q+0L6QNAb5gYJ1fG1RnXjYTHT0HsvzRQZ25nqVlS83OedtoP5DWcKsPoPF4Xzk+3tuH4MH5FEosnQFp4ZJ6RcAor6dD14xBL6UhXqO5j33dRur1pLkZTlAiB43E0q58jLKBlGVTSvzkVyTBrCanuH/dC/8WqGoZRMc/OIDGbOka/RRiKfq25Mj0Vs2DpjCB7MIuyzYjvvm+rvHLhax1uPn8EljNW8Rk6oBm+nUvyfPlr9c+8YcMfc3KA/mIHPDMaPuMc1Pudkg7ZJ3L61/0npxMplF67BAKPAh0BJ2JD8iIYK2u+YbT+JJmE7Mxcho31j20jpgLOtgQEasyPlrc20Aj+3tsa0WEgyIOaV6KfkXKNYR1Ln9uVxuT40O5bg94a8cNye3FBmPxzF1nbjHhs60oVrsARbbmPLmKZljbnMQGYdsiKl9zX1xVpzu/lDQLyvnzFG8RMsDMdBDsvS5SroTP1uCvq7amqxMt6zp3j/Y4Y+XIk/Hkz/hIE1FjmS8Te47A/xuKlaf4FJOnusJN1aL35cTRorXM2AXkhhqL13AJ6waZGTMNxlwmOrFm7tovmX+Glcx/pqr4/V5rFEWOoKK2e5yuTVqNs/sMqoa19ypegyqsyLqIqq1XXRuPm2AaaCxpHWIS9U0lJTX7WwjOgjW4PGOcvwXjy57OsPPaL4CYBY1/xR8ji7mI9q0YAlQdFK18sl4xJ315vMlw3Gh3qJVLax2tR7kdSGbdmP1HWWOkl1Nrt53wPm983G6FC7DZqCQ5Dbm/odTqp10xQ/EaT9mi+leJzxdyntbvCRV83OL5eMBx9EFTyUuFrP/FdUy9dNXqYVzZ/zSli3WtEWmUHIQ1f/TG6F8ZX08sF3cDXu4zJ641RspFpr+KY5G2ScIxa0r2phtL7JcG0eFuv0FydxxcE//xnOqtlOSUm4h58QRbRzSuwIN+pHYL1IBva+AKNPyb24irl3aR0yIqW3TfVLB9/XSfEDeNisjrgp7VuCY/a3xo9svzGNc8LgfK90pLjZkDeO+yVuWXDNkl4kk9Kv7q1rFPBKO2xw/inhqicMnBNOzUfyk2XmUJE/jvg+w9Ak3jDhfxmLuMgspxhysIKvDfsCh5NxJAItsJOMIXPErICXlFRZul9jts25dwS8cUX7TJaT+fHqS9dIkvPGwYdtjMHIDyV48gZ+NdXPe1StheInxInHl/Seoxp6aalT5YwV7uYxk31nY/MK5qYHtiz4vK0zp8hw1wjwJ4Vx5quTQ3xqqn+ILZLNI8C/8llcMshfCOWlyls4b3yF25PjjV+OpijHp/3ewRQ2Dnw51b4XNOIpIcBfYq402J9q8kJN9U8Ji9foi+/gZm03SsR82urHETC+OLn/wDvfyvg1Bhv5TAgQAm8WgfOtjN/sktLECQFC4DUiQMn4Na4a+UwIEAJnh8BPnrY8TY1xAlcAAAAASUVORK5CYII=;" parent="1" vertex="1">
          <mxGeometry x="872.5" y="658" width="355" height="19" as="geometry" />
        </mxCell>
        <mxCell id="wLfKBq6g52r6L9w3R0K2-31" value="" style="shape=image;verticalLabelPosition=bottom;labelBackgroundColor=#ffffff;verticalAlign=top;aspect=fixed;imageAspect=0;image=data:image/png,iVBORw0KGgoAAAANSUhEUgAAAVAAAAASCAYAAAAND4YKAAAJiklEQVR4Ae1bXWwU1xX+BvUxaaSqsQHzVttZmWxJgCDtPFSyRGXZVgmq6lKpQX5JZpUWEu0+pabBdt1Yfah2E4qKdsmLBZXimlYOgd1YRbHEw65EDTjZ2HJ3nTcwrImqVjzXt7p/M3fnZ3+90Dp3pfXMveeev292zpxz5toghBDoj0ZAI6AR0Ag0jMCuhjk0g0ZAI6AR0AgwBHQA1T8EjYBGQCPQJAI6gDYJnGbTCGgENAI6gOrfgEZAI6ARaBIBHUCbBE6zaQQ0AhqBJxNASzdhGhMwk48CES8lL8AwJp1vdC1wbTVC0jSRLPEVSdOAYTjjanyaphHQCOxMBLJRwDAAI+rjXykJ00z6EOqb+lZ9y9q8qnQTo3EgURxHrKcFXdko4hgBETJiOQKYZl0Cs1EDU6Eick0YQHmH0kJNJIHiyBx+H8ohNViX6pYXJc0oQrkUnpC6Bu3dxPX+93H1juHhI1vfx8+my5j9ddlLO3gUk4v9wB/OYcKHThnIyZ9j8oUbVenp833AwiyiP/3CV8fEReDDl/+G+7u89lGG/Sc7sXKJ20eETeVTY7hwyVn/yp/fw+sDHvFiorr/bz4O4/azl/H3XQbzJ30e+FCMqYDnB76DRwv/9AiXttTCh/lPuX0w6Prt2zh7+mtbH8XTrZ+v6QDWF/EbBSd7HsADn2vkYLJqy1edkPbvUSfbcF5KAkP0t5IBTL+crCeGd8MGotlYc/cr3Qf61D+ZKwS4QjItGpKxQCyXkEQkQhLFFgVXYU9EQKAoLSYidF+tx44qIlomJSJWk9hliAWQSABA0hfqj/sbxONxpvQZmXzmV+Tip4QQdv4BuVYihHz6EXnjmY/IXcqgntOx4Jk8V+bi3HSyQi5KmX78bjqXUqlfzrGjSx6dc9lqfXuM+0AI2Tj3gWN7hRyfQT3+q7r87HH73yA+HnuZPHEd3L766PfjV/HgXlMMFZl8Uvx148vHb/xypWJVWwcZQiKJAA0ZiyCQGMAjpttcwj9C0pyoUpavIWpMwBj6EsCXGJIlvHkTogpv4JmUxXw6glC3D8t6EqZBy3mfkj4bFfMGTFn7SxGSZpoKfxRZSS8lMRfOgCipZk8sB/q/CcoUeCtB6FfKhVLSZLqjQiDNZJmNzgQfB+kX9sXzaQzZ/vn4Ie31HAeRIgQjc72+rQ7pC/XH/a07U/9qE/dwAIdphsbOO9HVDSx/8jlwuAOdNIMplu1zZmJ3J/Yqttr0hVlYz85iGX14/fG0nfXVotuiFP32HD1ZL2MDu7Hne8DyqTFYp1a5rYfDOEh/TwP9OHaQ4NYnqyyTGx/rxC8en8BLFUICBnX4r+LCpCj20LHtn1TRED6buPPXh8Bo2LF34ATSj9/CsLxX3Lio+hdmMT4GvHpX8XfgBN48KfCQNi0UcAv82sop+6jKY5N9GJ7eDcwUsGwveoong8dh5efs1l8jlrQ5gD6PWG4ChIyDBnnvJ4QUmQDJvAjgRWTIOFtLcj9Aw5V8dh5phBHyMOYRH5rDSFEEgeII5nqVIDiYYsGhmIh4zaO0jAXkYfMXEwVMyUC7vgb/iO2IosFzbqRoByBa3hsiiNIApeodTBGuT7LX0i9sT0QsZJQgV3dwE3poq4MwXGgAV7CRdrRwZDe/uHndgWDfj/djD8QNvr8TspxbPnUZt3AAx053AIJu3LmBCVqGi6DrmMT5g+nOSha01UAiSV9t4v6uMq4eOsNK830vfBegQWaxX9jUgeF3DsC49CdYPylXBhMpI+BY23/+MDF2fYELz51BlH4P3cA9Oxi1ik8HuvaD2U5l8wdQpbEUFz/9e7s3cf13nwOjR51gq7KulPFAjN3XVl32IFtQ/FEonmup0NhpFlElMeAJ0Pb/RoFBhCJ5rK279dcetzmA1jZgW1dEQr59QCuTc3qrPTHMJAqYt9PIOiyw3rX5e0Jh5OtFWmSoakCjQTMTbvBp16z+Olyzl/TEkKNBOAOezUazkBmy88MVGbJRf5a75/Rb4H24ykDw0vlpnGUB8ms8WHJucHqT/3Hlh5i0MzxK341jt99mWSCUQMttr0WXHm7i/grAgqOcEkd689P+X+r2UXRtdeLQIA3crs9AGK9sERy5omRuriV+w9r+c7toTzH17/fYl2Z3TsbYKj4AxZr7RuxAybJsZnCw/pfBdR/5UZ/LNYElewByUvkfD+G9NgrN9eCqtt5Rxiskd/VDSHv6/YW1xuvenRVA82tOeW1fhYCy3qa3cNIdAuautSDgf4uVBcwh8Gw2NYhtKeFtFwNuRlb60QBJg4cIkksF3JHZgKs09ATAWnSX/r293uBIb2Ymt7sfZ9XS1uatLPPV6frPA/xfX8HtJcCxaxVLM0qgbxEfuyXBfJt2ArQ0vJZ+ABvFTbmaHxcW8fGSrBDolPvhRF8cncN1dg1d/jAJfM4bmCvVPOlR2Fu+1jRh5wRQ2sdAAd6HSB7xUWWbQimJ0XgYx7fjlTV7gxf39E5p2c7amD0xjBSmXL2VLOYLI3ZGS6+Q/eSjWyrs1/k1r52yQPGbyjCEfmVF1VPRS+2dG0G7nu5qn1G1hZd+oteIDgwvvoYjeIiP319ly5zSkNJ41sqCQv8iKx9r0W1dLBCJXqw9SU/4ze8EsAqiM3D3CR1KfWeePqBgU3ukdEqsk1lwK/hsCN8qeo3ri7g6A9jBq6r+PhweBe6NLTq9SvE2/8gVpSfqDsLqQ435oz4g6K6Ey7g1+prdw64PwHauymIt31yiZdCXSe00Ddm/iJdElVqszDhS3Tdh9n6GPJwtIWyVdQIkFapkqGNEX8LMH3de4NBAFs9HYFlAOp0XEiJIFGVJT3ssQ5A7kBwVtKeYwiANLDKgWRmQ4/OVY/GmiOtxuCMJZTsUDWi9cdpGtT9WxrERFfQIEokw4vE04KcvQD9UO6H6Z6v0P7F1C3/9V7U269r+Qrcu8RcwldtbnG0vfFvM+NhDptcI2F60d2oYXWeuse0/fgbybTYI3ELF9MG7vYlv5VFKVp/tPw1twQn0v3L7j8QFYovU1n+ewz7jX9gQ/jeKD/ff2aIkMSJbnXj1Lm9DqNuP3PrVdfSBJbdtVfju8k3qoEe6buKdTUz6bB9Tt0CpPO04p3tA5S1sy48AJGePwO6fqRBILqZM1nfa/gBanx3bs4oGkiaB2B4DtBSNgEbg/w0Bd+LViP07K4ACoP+JhBmZYTYChV6rEdAIfOMQoFXYKJBrIvukWO24APqN+wFohzUCGoGnhsB/ARHHaRzeK+GjAAAAAElFTkSuQmCC;" parent="1" vertex="1">
          <mxGeometry x="882" y="737" width="336" height="18" as="geometry" />
        </mxCell>
        <mxCell id="wLfKBq6g52r6L9w3R0K2-43" style="edgeStyle=orthogonalEdgeStyle;rounded=0;orthogonalLoop=1;jettySize=auto;html=1;" parent="1" source="wLfKBq6g52r6L9w3R0K2-32" edge="1">
          <mxGeometry relative="1" as="geometry">
            <mxPoint x="920" y="927" as="targetPoint" />
            <Array as="points">
              <mxPoint x="1255" y="927" />
            </Array>
          </mxGeometry>
        </mxCell>
        <mxCell id="wLfKBq6g52r6L9w3R0K2-32" value="转红黑树" style="rounded=0;whiteSpace=wrap;html=1;" parent="1" vertex="1">
          <mxGeometry x="1195" y="772" width="120" height="35" as="geometry" />
        </mxCell>
        <mxCell id="wLfKBq6g52r6L9w3R0K2-34" value="" style="shape=image;verticalLabelPosition=bottom;labelBackgroundColor=#ffffff;verticalAlign=top;aspect=fixed;imageAspect=0;image=data:image/png,iVBORw0KGgoAAAANSUhEUgAAALsAAAAUCAYAAADV2kxRAAAEfUlEQVRoBe1YO5LiMBB97FkWioQD2Dcw0SQTT2ZiXJsSkW7ZMWQbkxBM2TfAByChYO6irZYtW5Il2cNndwabKsqWWup+3WqrnzRijDEMvyECPYjAjx74OLg4RIBHYEj2IRF6E4Eh2Xuz1IOj3z7ZL4mP0WhU/RfZ11zUxPeRXO6DLfHJ3/vp01GJmD4qlp30XxL4fqJDu61NB1TbL/ZCltqE/6g/DcG8+GyxlrIQn8d4jj06lGt/j5nMuO1bYOndacjgxXovuyW+sWfG2zByZQfFKHzg4nfRT7G/J4Yvv7MHG4bDcmz+oi8nHL0pArPU2jteHnCOPYQpA11G8f/5Fbu35k7itG+1oAqy/Rbhaql2Dq3WCAQvIbbr5pq0TrQMMCd7tuC0IMq3mEsUwZfqcLYoqAP1iXeltFIZkuaO9JLUJi8xEEWR7Qo/uM1JhDyPKgozqupuhkVpW8ytMOo4hEL96bIvZL4v+biAmUFl2G89TH9KBjrEF8KG5oekBfiQY/wAWnOS9Wv+dcBX0K2SYlKs9Ni79JOjwQvCfOegf2KdO/ruqnKtZZbKM9GBqtakLC1Ln15mOXWoxjHWJhe4aJ6Vxpxj5hnoAZ9L2CR71Cf7w/EoVMZMC6z2ue/1HPc4M9WS8Qh/q2eaKhQy9tSSTm2gts8oFldQusqe9lLEp9bf8K8Fnz6eKIlM5Vr1l3h0v1WYRGO1OKgDlJZ5Z1e2D3fDi89gG0EkAgT0ekmwy3NEk/rgOIlyYLsvdr82udtkN2mwQXxc17tCtsDu9ZdCeRo0ZtJxhxAIwhUEwxpPZ8hPH0KiPq+gWsBeqaoUPv0XpofKPsZL/ImP2JvLiz61U1vW3/TPjW+8XGEWTaqqO9+GSA8qlXPrryEeT7aTfYANp6FSHOppjbebk72hUXR4cc2HBS9mmzrZ2uRCzw3P5WqG6Hex+skaWInMNOnkyQLs3m2BNU3q2JefLBTHMp8o3hxIq7gxpKE+VqNGuviR7U74RCKWZ6IUmOs0piPG2dRyZus4XwxrSfYjqo+q5NgVLRYaTM/xEq+IYB3bJjfpvKaP7+57ZIZd3aTufZfjXoGt9BPvhBTHSkAvUr8eX7kaXBKst8pEADki+UB9SfAWzfAiiiwNF7zauhC6zk+0W/Dd56o1wyl3fNTCv64fkUJq9Ibg5A1eJLiSen2nUmTDGIVfu+QGGcdQc1/OARXOLZ8dJEe4D/U8khR8UcVOZ4/6bNBiX44LOa23JfP0ar1Ck+fJ/LucU1+PeszjHL3g7YKvh6F8hVrza2G+iJHqu5C5nnJ8+JrKOMtFVuOv4iPdBUY5xjWOLvo5PrKr5IyKWuf9qrTZIqrx3L80lJL4P7nasmiPQVV8sPUH/Bgrj9Rq3SRKo/yDUndYJ5ynT3bnjYczNPcV6rdP99Vu0Hbn2xmDhcd2uW7ayDL3r1nNXKBGJPwEU/seQ4nLzWWS6yE+dzuxfw8HB5TXROA5k/2aSAxznj4CLbcxT+//4GCPIjAke48Wu++uDsne9wzokf9/AQDcHKWI+mugAAAAAElFTkSuQmCC;" parent="1" vertex="1">
          <mxGeometry x="1227.5" y="737" width="187" height="20" as="geometry" />
        </mxCell>
        <mxCell id="wLfKBq6g52r6L9w3R0K2-35" value="" style="shape=image;verticalLabelPosition=bottom;labelBackgroundColor=#ffffff;verticalAlign=top;aspect=fixed;imageAspect=0;image=data:image/png,iVBORw0KGgoAAAANSUhEUgAAAOMAAAAVCAYAAAC0RVlIAAAF5klEQVR4Ae1aTUwbRxT+FvUIzQ2K0iMQK5WDW7WR7AOKpUTIRG05NOHQRlzKWk2AFquHhISAQ0E94YbQRia5IKgUUlqhKNhFRSBxsKWmCqSUlNgcE1ybU5Q7U82ud73jXXvtsrYJHUvGO+/N+/tm38zbtwiEEAL+4QhwBCqOQFXFPeAOcAQ4AhICPBn5jcAROCAIlDcZ46twCUNwBXZzhh8P3IYg+DNf71bOufkYAZcLgXi+GSXgba/gRk0/btxKlUB5pVSmsODuh/fIVYjdTyvghBX2MzoKiSNxa1yOt2YcC9vpkOMBuFyBksZf3mQ0CyW+ik4fMBYbBCHpb9BmJqXnh73w4Rz6GvWseMAFV54sNePrNR4eynp3v0HC1eLsyii+uFCp1oIV9mUdwZcjBcVR39OL4P0T7MI29mHA7oM3zJKtHL1hpTJTXY0tiJCW3NO2dxFFLQYMkii3kJ4Tnp+EOFCBm6fBjeuv3HqHSk4Jwyu0YWMshojRDlSM/c0kEjiO+mJk/idzPe0i2oYDCHr6ShJxmZJxFwHX9/BFBTkIsQOEOfG24BXuYRIyv034S57ndCMWaUFxuRnG/KQTtq+txusp7tbM4FFVOgYA5L3T8K+4UQ9aBn2HB49lHrnwKSYnjjMO0FPn9nRGljIz8nTE6id7J3DxVQccjJZcAw+ChCDgEiD4nBiLRQyrglzSWtsCljB0ZEmayvpHSUksuGekOBn/aHn+7m94USWAxu4/toSha0mQvTp8vNaLsw1U1iw+lk8lCrYveZu1BuraSEzzP9oYqOxlAxFPO8S2YQTifUXia6DLiERfbZTzExIHCcS/jU2G5ggwR0LG3MKoIZEAIqsjNkacAD0qdV+RGjPjkyR5eOoK6bq0qfqwM36TdJ1aJjsqRb5Yu8TOU9haOpUV3+wn/vGkzI4vE3/1FXLnV2U2IZL+6ntkLUMq7EqNJQuDAqQlHw1ioqISr/omeRiXFWnjUVRTGo2rK+23FAPFzDQ+c3zz298kd6pZ3OX5evyM/Fb8y16PLk28SoxjThDpnlEIFv6W6WQ02gZKSHPa4NGqb+xDhMilBX0m7MRUVjlnxq/F0XcAYfpHeKdlxfpdW2tQf+2YGMUkANocoKfG0W++xPWeWmliIrwhnSovzl/FI42oUJXEH4sdcLRqiGaXSqxhLwRBAMQQSJBBw0xDbn7n6fQpB9Qdewv4RV/SMidmT2865iWT+ArEN5f9xQ38jmZc1FQjjonPcHJqpiD8KP7P3z8Df3o9QB835lIQP0kaYrGxFQc8xdVrhoqyiIczGaNboM/ZFt2CEmQ0mYITmWQSHi9hsCZVRCmZkf3g/gg+1yRY8tk/IHvNRenKWkdmSDecJp8dIUIsxYAxkmvQadeV1oXEZwW+Ri7txFJAq7zpGfEpjfoH2HOxdXS7zfpEpEYOVjdVF/Z/INC6Hhugm5d1H/o804+7i4DUaXs5ou+2mRhTTkQ1ERdnIdbMYh2A46szeBtP8IP21cHirNRepzYL/qRPw6afzoGQ4D4TUX4dYMVrGvP49olvqx0ns/Bb756RTsuPlNMuD4iOD5tBN9cFFesUFr59YiARxlbUCZv0DGzA3idJoCXvPnUUJh7+GUJbujGjkRBDgwg2rMLVtIxouoGjsnWNHpWT9yLsFTDfTmBVdZbdfKDG2eYEAJo85//U+SUnH9tcUCYxJZ2mgaDyDRpBCo/5pe/AmnyIQkRoX0nINlGUUjypaT5pGzTUBzpn6HIKfoPYmUZW3vhYu5JeTfNH2/wysi830VgdDLY51oba0W6OyvpJaztahwfX5PVU59DNbtgGEilNN7V8ycjcPSUelBi0EnvP1R9QBKzf5NlAD2cyAqD/gYOpYlv8LDh8xBFQEaDVRycQKdGpSO0c2mRUQeQXHIHXBIHD18B5TYDnbnIEshHgyZiNCB9zBCqEQFmTMZFIVChMbpYjcPARKGsyHnw4uIccgcohwJOxcthzyxwBBgGejAwcfMARqBwC/wIRZlm89/pamwAAAABJRU5ErkJggg==;" parent="1" vertex="1">
          <mxGeometry x="740" y="867" width="227" height="21" as="geometry" />
        </mxCell>
        <mxCell id="wLfKBq6g52r6L9w3R0K2-36" value="" style="rounded=0;whiteSpace=wrap;html=1;" parent="1" vertex="1">
          <mxGeometry x="796.5" y="1007" width="120" height="30" as="geometry" />
        </mxCell>
        <mxCell id="wLfKBq6g52r6L9w3R0K2-38" value="" style="edgeStyle=orthogonalEdgeStyle;rounded=0;orthogonalLoop=1;jettySize=auto;html=1;" parent="1" source="wLfKBq6g52r6L9w3R0K2-37" target="wLfKBq6g52r6L9w3R0K2-36" edge="1">
          <mxGeometry relative="1" as="geometry" />
        </mxCell>
        <mxCell id="wLfKBq6g52r6L9w3R0K2-37" value="是否需要扩容" style="rhombus;whiteSpace=wrap;html=1;" parent="1" vertex="1">
          <mxGeometry x="793.5" y="888" width="120" height="80" as="geometry" />
        </mxCell>
        <mxCell id="wLfKBq6g52r6L9w3R0K2-39" value="" style="shape=image;verticalLabelPosition=bottom;labelBackgroundColor=#ffffff;verticalAlign=top;aspect=fixed;imageAspect=0;image=data:image/png,iVBORw0KGgoAAAANSUhEUgAAAFgAAAASCAYAAADfVhk+AAACWUlEQVRYCe1XO47bMBB9zFmyCzU+AHUDbbWN63RS7UXaVOmpWnsFN66kG6wOkMaQc5cJRt8h9fVCQoJYBAQPOcMZ8nHmkVZERNjbZgh82czz7rhEYAd440R4KIBj30d8E4jeYvh+LAY2EJmD/3ZLQ5A2xbbLSEOCNr0YHDtMe8OrDSj2tMG5/XMus0jh8kpIAmdpWQT10wN9nBzFOt1JiuBFKaXgxzc0slKizLjEVGXDdmqg3GJf6n27JHlz9XyO4bZb7Lf6xk5FWWe2IH5lnOHyruF97aa2UvCKMD/b1NEqWcgQlWsU+7b0051JgIOEQGmI/O0ZL0jByU70A97vymn87YxjwWPVVxzPkAAwQOdj0erTQ45cridISl1htBy1ZG3q+YWBhob53qXgXPzWUXbBOw7wntoRIQTwdI5rvSehWEecJZs0HObHwpAGmF6cL6SO0lIKLb3UdZELo4djNCZlLE0WTS+KXzsY4d/GvdHb3QGTGTx7hNq02dlkMVGCLscCJHV2l/oUeBmgkck4TAPPXCkfOLkZOBtfeM6vEOQiFJV4GE7vnt29A58H+OmEI94gKdEN3nsWuQaz/QyRBW6GqDmgBfFb98yz+IVrn+ZLjr3mI/zMDpp7oonbOl0oNGXS/3XLu6IC+0kzYCOeQlx6NoVIihiYW9JJZ8NPKHs+nKfWgA8RX+5p9Dk2Qx9MX4BDT9LxjMwl/hhtBMhR4GtUyiSxs+ouvB4HYCIy2slEvihHMr5EcehyvQteoof5o7GQMVc3+/wlt/pS/k+HO8Abn+sO8MYA/wHaKNsslkx0ZQAAAABJRU5ErkJggg==;" parent="1" vertex="1">
          <mxGeometry x="825.5" y="1013" width="88" height="18" as="geometry" />
        </mxCell>
        <mxCell id="wLfKBq6g52r6L9w3R0K2-44" value="hashMap put方法流程" style="rounded=0;whiteSpace=wrap;html=1;" parent="1" vertex="1">
          <mxGeometry x="70" y="60" width="160" height="60" as="geometry" />
        </mxCell>
        <mxCell id="wLfKBq6g52r6L9w3R0K2-48" style="edgeStyle=orthogonalEdgeStyle;rounded=0;orthogonalLoop=1;jettySize=auto;html=1;exitX=0.5;exitY=1;exitDx=0;exitDy=0;entryX=0.5;entryY=0;entryDx=0;entryDy=0;" parent="1" source="wLfKBq6g52r6L9w3R0K2-45" target="wLfKBq6g52r6L9w3R0K2-1" edge="1">
          <mxGeometry relative="1" as="geometry" />
        </mxCell>
        <mxCell id="wLfKBq6g52r6L9w3R0K2-45" value="开始" style="ellipse;whiteSpace=wrap;html=1;" parent="1" vertex="1">
          <mxGeometry x="240" y="170" width="120" height="80" as="geometry" />
        </mxCell>
      </root>
    </mxGraphModel>
  </diagram>
</mxfile>
